<?xml version="1.0" encoding="UTF-8"?>
<svg width="280" height="60" viewBox="0 0 280 60" version="1.1" xmlns="http://www.w3.org/2000/svg">
  <style>
    .logo-text { font-family: Arial, sans-serif; font-weight: bold; }
    .doruk-text { fill: #1976d2; }
    .kitap-text { fill: #424242; }
    .wave { stroke: #1976d2; opacity: 0.6; }
  </style>
  
  <!-- Gradients -->
  <defs>
    <linearGradient id="bookGradient" x1="0%" y1="0%" x2="100%" y2="100%">
      <stop offset="0%" style="stop-color:#2962ff"/>
      <stop offset="100%" style="stop-color:#1565c0"/>
    </linearGradient>
    <linearGradient id="spineGradient" x1="0%" y1="0%" x2="100%" y2="0%">
      <stop offset="0%" style="stop-color:#1565c0"/>
      <stop offset="100%" style="stop-color:#0d47a1"/>
    </linearGradient>
    <linearGradient id="pageGradient" x1="0%" y1="0%" x2="0%" y2="100%">
      <stop offset="0%" style="stop-color:#ffffff"/>
      <stop offset="100%" style="stop-color:#e3f2fd"/>
    </linearGradient>
  </defs>
  
  <!-- Kitap ikonu -->
  <g transform="translate(5, 5)">
    <!-- Gölge efekti -->
    <ellipse cx="25" cy="52" rx="20" ry="3" fill="#000000" opacity="0.1"/>
    
    <!-- Kitap ana gövde -->
    <g transform="rotate(-10, 25, 30)">
      <!-- Kitap sırtı -->
      <path d="
        M 10,5
        C 5,5 5,10 5,15
        L 5,45
        C 5,50 5,55 10,55
        L 15,55
        L 15,5
        L 10,5
        Z
      " fill="url(#spineGradient)"/>
      
      <!-- Kitap kapağı -->
      <path d="
        M 15,5
        L 45,5
        C 50,5 50,10 50,15
        L 50,45
        C 50,50 50,55 45,55
        L 15,55
        Z
      " fill="url(#bookGradient)"/>
      
      <!-- Sayfalar -->
      <path d="
        M 17,8
        L 47,8
        C 48,8 48,9 48,10
        L 48,50
        C 48,51 48,52 47,52
        L 17,52
        Z
      " fill="url(#pageGradient)"/>
      
      <!-- Sayfa çizgileri -->
      <g stroke="#bbdefb" stroke-width="1">
        <path d="M 20,15 L 45,15"/>
        <path d="M 20,22 L 45,22"/>
        <path d="M 20,29 L 45,29"/>
        <path d="M 20,36 L 45,36"/>
        <path d="M 20,43 L 45,43"/>
      </g>
      
      <!-- Parlaklık efektleri -->
      <circle cx="40" cy="12" r="3" fill="white" opacity="0.6"/>
      <path d="M 45,5 L 48,8" stroke="white" stroke-width="1" opacity="0.6"/>
      <path d="M 45,55 L 48,52" stroke="white" stroke-width="1" opacity="0.4"/>
    </g>
  </g>
  
  <!-- Logo metni -->
  <g transform="translate(60, 40)">
    <text class="logo-text doruk-text" font-size="32">DORUK</text>
    <text class="logo-text kitap-text" x="120" font-size="32">KİTAP</text>
  </g>

  <!-- Alt dalgalı çizgi -->
  <g transform="translate(60, 45)">
    <!-- Ana dalga -->
    <path class="wave" d="
      M 0,0
      Q 35,-4 70,0
      T 140,0
      T 210,0
    " fill="none" stroke-width="2"/>
    
    <!-- İkinci dalga -->
    <path class="wave" d="
      M 0,4
      Q 35,0 70,4
      T 140,4
      T 210,4
    " fill="none" stroke-width="1"/>
  </g>
</svg>
